<svg width="21" height="16" viewBox="0 0 21 16" fill="none" xmlns="http://www.w3.org/2000/svg">
<path fill-rule="evenodd" clip-rule="evenodd" d="M0.0585938 6.59375C0.0585938 5.48918 0.954024 4.59375 2.05859 4.59375H11.0599C12.1645 4.59375 13.0599 5.48918 13.0599 6.59375V13.5938C13.0599 14.6984 12.1645 15.5938 11.0599 15.5938H2.05859C0.954025 15.5938 0.0585938 14.6984 0.0585938 13.5938V6.59375ZM3.80986 10.0936C3.80986 9.67934 4.14564 9.34356 4.55986 9.34356H5.81101V8.09463C5.81101 7.68042 6.1468 7.34463 6.56101 7.34463C6.97522 7.34463 7.31101 7.68042 7.31101 8.09463V9.34356H8.56026C8.97448 9.34356 9.31026 9.67934 9.31026 10.0936C9.31026 10.5078 8.97448 10.8436 8.56026 10.8436H7.31101V12.0947C7.31101 12.5089 6.97522 12.8447 6.56101 12.8447C6.1468 12.8447 5.81101 12.5089 5.81101 12.0947V10.8436H4.55986C4.14564 10.8436 3.80986 10.5078 3.80986 10.0936Z" fill="white"/>
<path d="M14.0586 8.82892C14.0586 8.07135 14.4866 7.3788 15.1642 7.04003L18.4512 5.39669C19.19 5.02733 20.0592 5.56455 20.0592 6.39051V13.7951C20.0592 14.6211 19.19 15.1583 18.4512 14.7889L15.1642 13.1456C14.4866 12.8068 14.0586 12.1143 14.0586 11.3567V8.82892Z" fill="white"/>
<path d="M5.05664 1.59375H9.39058C10.3111 1.59375 11.0572 2.33994 11.0572 3.26042V4.59377" stroke="white" stroke-width="1.5" stroke-linecap="round"/>
</svg>
