<svg width="26" height="26" viewBox="0 0 26 26" fill="none" xmlns="http://www.w3.org/2000/svg">
<path d="M22.3483 17.3312C22.264 17.2296 22.1813 17.128 22.1 17.03C20.9828 15.6787 20.3069 14.8632 20.3069 11.0378C20.3069 9.05738 19.8331 7.43238 18.8993 6.21363C18.2107 5.31328 17.2799 4.63027 16.053 4.12551C16.0372 4.11672 16.0231 4.1052 16.0114 4.09148C15.5701 2.61375 14.3625 1.62402 13.0005 1.62402C11.6386 1.62402 10.4315 2.61375 9.99022 4.08996C9.97845 4.10318 9.96454 4.11433 9.94909 4.12297C7.08604 5.3016 5.69464 7.56289 5.69464 11.0363C5.69464 14.8632 5.01976 15.6787 3.90155 17.0285C3.8203 17.1265 3.73753 17.226 3.65323 17.3296C3.43548 17.5922 3.29752 17.9117 3.25567 18.2503C3.21383 18.5889 3.26984 18.9323 3.4171 19.24C3.73042 19.9002 4.39819 20.31 5.16042 20.31H20.8462C21.6049 20.31 22.2681 19.9007 22.5824 19.2436C22.7303 18.9358 22.7869 18.5921 22.7454 18.2531C22.7039 17.9142 22.5661 17.5942 22.3483 17.3312Z" fill="white"/>
<path d="M13.0005 24.375C13.7343 24.3744 14.4542 24.1752 15.084 23.7986C15.7138 23.4219 16.2299 22.8818 16.5775 22.2356C16.5939 22.2046 16.602 22.1699 16.601 22.1349C16.6 22.0999 16.59 22.0657 16.5719 22.0357C16.5538 22.0057 16.5283 21.9809 16.4977 21.9637C16.4672 21.9465 16.4328 21.9375 16.3977 21.9375H9.60423C9.56915 21.9374 9.53464 21.9463 9.50406 21.9635C9.47347 21.9807 9.44786 22.0055 9.4297 22.0355C9.41155 22.0655 9.40148 22.0997 9.40047 22.1348C9.39947 22.1699 9.40756 22.2046 9.42396 22.2356C9.77157 22.8817 10.2876 23.4218 10.9172 23.7984C11.5469 24.1751 12.2668 24.3743 13.0005 24.375Z" fill="white"/>
</svg>
