<svg width="20" height="16" viewBox="0 0 20 16" fill="none" xmlns="http://www.w3.org/2000/svg">
<path fill-rule="evenodd" clip-rule="evenodd" d="M0.5 4.52417C0.223858 4.52417 0 4.74803 0 5.02417V13.5008C0 14.8815 1.11929 16.0008 2.5 16.0008H17.5C18.8807 16.0008 20 14.8815 20 13.5008V5.02417C20 4.74803 19.7761 4.52417 19.5 4.52417H0.5ZM4.99966 9.25045C4.58545 9.25045 4.24966 9.58623 4.24966 10.0004C4.24966 10.4147 4.58545 10.7504 4.99966 10.7504H14.9997C15.4139 10.7504 15.7497 10.4147 15.7497 10.0004C15.7497 9.58623 15.4139 9.25045 14.9997 9.25045H4.99966Z" fill="white"/>
<path fill-rule="evenodd" clip-rule="evenodd" d="M1.75381 0.113257C1.77732 0.612689 1.95598 1.1242 2.31559 1.52873C2.71489 1.97789 3.29763 2.24913 4.00112 2.24913C4.41534 2.24913 4.75112 1.91334 4.75112 1.49913C4.75112 1.08492 4.41534 0.74913 4.00112 0.74913C3.70462 0.74913 3.53736 0.645405 3.43666 0.532126C3.32382 0.405191 3.25129 0.214845 3.25113 0H6.25189C6.25205 0.534567 6.4295 1.09355 6.81635 1.52873C7.21565 1.97789 7.79839 2.24913 8.50188 2.24913C8.9161 2.24913 9.25188 1.91334 9.25188 1.49913C9.25188 1.08492 8.9161 0.74913 8.50188 0.74913C8.20538 0.74913 8.03812 0.645405 7.93742 0.532126C7.82458 0.405192 7.75205 0.214845 7.75189 0H10.7544C10.7546 0.534567 10.932 1.09355 11.3189 1.52873C11.7182 1.97789 12.3009 2.24913 13.0044 2.24913C13.4186 2.24913 13.7544 1.91334 13.7544 1.49913C13.7544 1.08492 13.4186 0.74913 13.0044 0.74913C12.7079 0.74913 12.5407 0.645405 12.44 0.532126C12.3271 0.405192 12.2546 0.214845 12.2544 0H15.2499C15.25 0.534567 15.4275 1.09355 15.8143 1.52873C16.2136 1.97789 16.7964 2.24913 17.4999 2.24913C17.9141 2.24913 18.2499 1.91334 18.2499 1.49913C18.2499 1.08492 17.9141 0.74913 17.4999 0.74913C17.2033 0.74913 17.0361 0.645405 16.9354 0.532126C16.8225 0.405192 16.75 0.214845 16.7499 0H17.5C18.8807 0 20 1.11929 20 2.5V2.99971H0V2.5C0 1.37919 0.737566 0.430643 1.75381 0.113257Z" fill="white"/>
</svg>
