<svg width="25" height="19" viewBox="0 0 25 19" fill="none" xmlns="http://www.w3.org/2000/svg">
<path fill-rule="evenodd" clip-rule="evenodd" d="M8.7102 0.397498C9.2402 0.927495 9.2402 1.78679 8.7102 2.31679L5.59842 5.42857H17.2506C19.0502 5.42857 20.7762 6.14349 22.0488 7.41606C23.3213 8.68863 24.0363 10.4146 24.0363 12.2143C24.0363 14.014 23.3213 15.7399 22.0488 17.0125C20.7762 18.2851 19.0502 19 17.2506 19H15.8934C15.1439 19 14.5363 18.3924 14.5363 17.6429C14.5363 16.8933 15.1439 16.2857 15.8934 16.2857H17.2506C18.3304 16.2857 19.3659 15.8568 20.1295 15.0932C20.893 14.3297 21.322 13.2941 21.322 12.2143C21.322 11.1345 20.893 10.0989 20.1295 9.33535C19.3659 8.57181 18.3304 8.14286 17.2506 8.14286H5.59842L8.7102 11.2546C9.2402 11.7846 9.2402 12.6439 8.7102 13.1739C8.1802 13.7039 7.32091 13.7039 6.79091 13.1739L1.36234 7.74536C0.832344 7.21536 0.832344 6.35607 1.36234 5.82607L6.79091 0.397498C7.32091 -0.132499 8.1802 -0.132499 8.7102 0.397498Z" fill="white"/>
</svg>
