<svg width="24" height="21" viewBox="0 0 24 21" fill="none" xmlns="http://www.w3.org/2000/svg">
<path d="M20.2623 0.59375H7.68359C6.85479 0.59375 6.05994 0.92299 5.47389 1.50904C4.88783 2.09509 4.55859 2.88995 4.55859 3.71875V14.3438H12.0586C12.3901 14.3438 12.7081 14.4754 12.9425 14.7099C13.1769 14.9443 13.3086 15.2622 13.3086 15.5938V18.2113C13.3086 19.5912 14.4273 20.5938 15.8086 20.5938C17.1773 20.5938 18.2898 19.61 18.3086 18.2438V3.56375H18.3123C18.3466 2.87077 18.6105 2.2089 19.0625 1.68247C19.5145 1.15605 20.1288 0.795001 20.8086 0.65625C20.6287 0.619408 20.4459 0.598494 20.2623 0.59375ZM12.9123 20.5938C12.3603 19.9225 12.0585 19.0804 12.0586 18.2113V15.5938H1.43359C1.26783 15.5938 1.10886 15.6596 0.991652 15.7768C0.874442 15.894 0.808594 16.053 0.808594 16.2188V17.7038C0.808594 19.3687 2.16609 20.5938 3.77734 20.5938H12.9123ZM22.0586 6.84375C22.3901 6.84375 22.7081 6.71205 22.9425 6.47763C23.1769 6.24321 23.3086 5.92527 23.3086 5.59375V3.71875C23.3086 3.22147 23.111 2.74456 22.7594 2.39292C22.4078 2.04129 21.9309 1.84375 21.4336 1.84375C20.9363 1.84375 20.4594 2.04129 20.1078 2.39292C19.7561 2.74456 19.5586 3.22147 19.5586 3.71875V6.84375H22.0586Z" fill="#EFF2F4"/>
</svg>
