<svg width="24" height="24" viewBox="0 0 24 24" fill="none" xmlns="http://www.w3.org/2000/svg">
<path d="M11.999 7.9375C11.1955 7.9375 10.4101 8.17576 9.74201 8.62215C9.07393 9.06855 8.55323 9.70302 8.24575 10.4453C7.93827 11.1877 7.85782 12.0045 8.01457 12.7926C8.17132 13.5806 8.55824 14.3045 9.12639 14.8726C9.69454 15.4408 10.4184 15.8277 11.2065 15.9844C11.9945 16.1412 12.8113 16.0607 13.5537 15.7533C14.296 15.4458 14.9305 14.9251 15.3769 14.257C15.8232 13.5889 16.0615 12.8035 16.0615 12C16.0583 10.9235 15.6293 9.8921 14.8681 9.13093C14.1069 8.36976 13.0755 7.94071 11.999 7.9375ZM20.7699 12C20.7678 12.3796 20.74 12.7586 20.6867 13.1345L23.1592 15.0702C23.2669 15.1592 23.3395 15.2835 23.3639 15.421C23.3884 15.5585 23.3632 15.7002 23.2928 15.8208L20.9538 19.8589C20.8827 19.9784 20.7717 20.0691 20.6404 20.1149C20.509 20.1607 20.3657 20.1587 20.2357 20.1093L17.3285 18.9413C16.7231 19.4075 16.0607 19.7943 15.3572 20.0925L14.9225 23.179C14.8982 23.3172 14.8266 23.4427 14.72 23.5341C14.6134 23.6254 14.4783 23.6769 14.338 23.6797H9.66003C9.52223 23.677 9.38942 23.6277 9.28326 23.5398C9.1771 23.4519 9.10388 23.3306 9.07554 23.1957L8.64085 20.1093C7.93543 19.8145 7.27248 19.427 6.66952 18.957L3.7623 20.125C3.63234 20.1745 3.4891 20.1765 3.35777 20.1308C3.22644 20.0851 3.11543 19.9946 3.04425 19.8752L0.705264 15.8375C0.63486 15.7169 0.609637 15.5752 0.634104 15.4377C0.65857 15.3002 0.731131 15.1759 0.838819 15.087L3.31136 13.1512C3.25862 12.7697 3.2308 12.3851 3.22808 12C3.23019 11.6204 3.25801 11.2414 3.31136 10.8655L0.838819 8.92976C0.731131 8.84085 0.65857 8.71653 0.634104 8.57904C0.609637 8.44154 0.63486 8.29983 0.705264 8.17922L3.04425 4.14109C3.11535 4.02155 3.22633 3.93091 3.35767 3.88512C3.489 3.83933 3.63228 3.84132 3.7623 3.89074L6.66952 5.05871C7.27489 4.59254 7.93737 4.20567 8.64085 3.9075L9.07554 0.821016C9.09986 0.682763 9.17145 0.55725 9.27806 0.465925C9.38467 0.374599 9.51968 0.32313 9.66003 0.320312H14.338C14.4758 0.322995 14.6086 0.372308 14.7148 0.460203C14.8209 0.548098 14.8941 0.669382 14.9225 0.804258L15.3572 3.89074C16.0635 4.18526 16.7273 4.57276 17.331 5.04297L20.2357 3.875C20.3657 3.82553 20.5089 3.82347 20.6402 3.86916C20.7716 3.91486 20.8826 4.00539 20.9538 4.12484L23.2928 8.16297C23.3632 8.28358 23.3884 8.42529 23.3639 8.56279C23.3395 8.70028 23.2669 8.8246 23.1592 8.91352L20.6867 10.8493C20.7394 11.2306 20.7672 11.615 20.7699 12Z" fill="white"/>
</svg>
