<svg width="21" height="21" viewBox="0 0 21 21" fill="none" xmlns="http://www.w3.org/2000/svg">
<path d="M9.22526 0.59375V5.59375H0.0585938V4.76042C0.0585938 3.65535 0.497581 2.59554 1.27898 1.81414C2.06038 1.03274 3.12019 0.59375 4.22526 0.59375H9.22526ZM10.8919 0.59375V13.9271H20.0586V4.76042C20.0586 3.65535 19.6196 2.59554 18.8382 1.81414C18.0568 1.03274 16.997 0.59375 15.8919 0.59375H10.8919ZM20.0586 15.5938H10.8919V20.5938H15.8919C16.997 20.5938 18.0568 20.1548 18.8382 19.3734C19.6196 18.592 20.0586 17.5322 20.0586 16.4271V15.5938ZM9.22526 20.5938V7.26042H0.0585938V16.4271C0.0585938 17.5322 0.497581 18.592 1.27898 19.3734C2.06038 20.1548 3.12019 20.5938 4.22526 20.5938H9.22526Z" fill="#EFF2F4"/>
</svg>
