<svg width="254" height="230" viewBox="0 0 254 230" fill="none" xmlns="http://www.w3.org/2000/svg">
<path fill-rule="evenodd" clip-rule="evenodd" d="M6.54002 223.497C12.3532 224.982 12.3532 224.982 12.3534 224.981L12.3549 224.976L12.3617 224.949L12.3903 224.838C12.4053 224.78 12.4246 224.705 12.4485 224.613C12.4658 224.546 12.4855 224.471 12.5075 224.386C12.612 223.985 12.7692 223.385 12.9777 222.6C13.3946 221.029 14.0164 218.719 14.8319 215.774C16.463 209.884 18.8681 201.458 21.9572 191.344C28.1397 171.102 37.0429 144.158 47.9449 117.253C58.873 90.2838 71.6913 63.6526 85.6334 43.864C92.6039 33.9703 99.6962 26.0184 106.775 20.587C111.664 16.835 116.386 14.4056 120.945 13.2643V101.838C115.221 104.486 111.25 110.279 111.25 117C111.25 126.22 118.724 133.695 127.945 133.695C137.166 133.695 144.64 126.22 144.64 117C144.64 109.521 139.723 103.191 132.945 101.066V13.2643C137.505 14.4056 142.226 16.835 147.116 20.587C154.194 26.0184 161.286 33.9703 168.257 43.864C182.199 63.6526 195.017 90.2838 205.945 117.253C216.847 144.158 225.75 171.102 231.933 191.344C235.022 201.458 237.427 209.884 239.058 215.774C239.874 218.719 240.496 221.029 240.912 222.6C241.121 223.385 241.278 223.985 241.383 224.386L241.436 224.592L241.5 224.838L241.528 224.949L241.535 224.976L241.537 224.981C241.537 224.982 241.537 224.982 247.35 223.497L241.537 224.982C242.357 228.193 245.625 230.13 248.836 229.31C252.046 228.49 253.984 225.222 253.163 222.011L247.35 223.497C253.163 222.011 253.163 222.01 253.162 222.007L253.16 221.998L253.152 221.965L253.12 221.841L253.07 221.65L252.995 221.363C252.886 220.943 252.724 220.324 252.511 219.52C252.084 217.912 251.451 215.56 250.623 212.572C248.968 206.595 246.534 198.068 243.41 187.839C237.165 167.395 228.147 140.09 217.067 112.747C206.013 85.4675 192.79 57.8502 178.067 36.9525C170.704 26.5029 162.808 17.5023 154.421 11.0667C146.024 4.62404 136.799 0.50293 126.945 0.50293C117.091 0.50293 107.866 4.62404 99.4694 11.0667C91.0824 17.5023 83.1859 26.5029 75.8236 36.9525C61.1001 57.8502 47.8769 85.4675 36.8233 112.747C25.7435 140.09 16.7247 167.395 10.4806 187.839C7.3564 198.068 4.92203 206.595 3.26707 212.572C2.43951 215.56 1.80659 217.912 1.37952 219.52C1.16598 220.324 1.00389 220.943 0.894639 221.363C0.840015 221.572 0.7986 221.732 0.770571 221.841L0.738586 221.965L0.730163 221.998L0.727852 222.007C0.727224 222.01 0.726809 222.011 6.54002 223.497ZM6.54002 223.497L12.3532 224.982C11.5328 228.193 8.26509 230.13 5.05455 229.31C1.844 228.49 -0.0935925 225.222 0.726809 222.011L6.54002 223.497Z" fill="#E17711"/>
</svg>
