<svg width="21" height="15" viewBox="0 0 21 15" fill="none" xmlns="http://www.w3.org/2000/svg">
<path d="M20.1345 12.8477C20.6286 10.1207 20.6587 7.32837 20.226 4.59121L20.1546 4.1384C20.064 3.56771 19.7752 3.04825 19.34 2.67303C18.9047 2.2978 18.3514 2.09134 17.7792 2.0906H8.06001C8.04245 2.0903 8.02572 2.08305 8.01341 2.07041C8.0011 2.05777 7.9942 2.04075 7.99421 2.02302C7.99421 0.905626 7.09757 0 5.99015 0H3.43628C2.84179 0.000121161 2.26794 0.220246 1.82325 0.618752C1.37855 1.01726 1.09384 1.56652 1.02294 2.16269L0.718479 4.71849C0.401587 7.37923 0.483169 10.073 0.960483 12.7092C1.05549 13.2321 1.31974 13.7082 1.71174 14.063C2.10374 14.4177 2.60128 14.6309 3.12625 14.6691L4.8147 14.793C8.63992 15.069 12.4808 15.069 16.306 14.793L18.1327 14.6601C18.6181 14.6245 19.0781 14.4271 19.4404 14.0988C19.8027 13.7706 20.0469 13.3313 20.1345 12.8477Z" fill="white"/>
</svg>
